<svg width="346" height="91" viewBox="0 0 346 91" fill="none" xmlns="http://www.w3.org/2000/svg">
<g clip-path="url(#clip0_41_18)">
<path d="M114.725 72.6C110.925 72.6 107.5 71.75 104.45 70.05C101.4 68.3 98.975 65.875 97.175 62.775C95.425 59.675 94.55 56.025 94.55 51.825C94.55 47.575 95.425 43.9 97.175 40.8C98.975 37.7 101.4 35.3 104.45 33.6C107.5 31.9 110.925 31.05 114.725 31.05C118.125 31.05 121.1 31.8 123.65 33.3C126.2 34.8 128.175 37.075 129.575 40.125C130.975 43.175 131.675 47.075 131.675 51.825C131.675 56.525 131 60.425 129.65 63.525C128.3 66.575 126.35 68.85 123.8 70.35C121.3 71.85 118.275 72.6 114.725 72.6ZM116.75 63C118.65 63 120.375 62.55 121.925 61.65C123.475 60.75 124.7 59.475 125.6 57.825C126.55 56.125 127.025 54.125 127.025 51.825C127.025 49.475 126.55 47.475 125.6 45.825C124.7 44.175 123.475 42.9 121.925 42C120.375 41.1 118.65 40.65 116.75 40.65C114.8 40.65 113.05 41.1 111.5 42C109.95 42.9 108.7 44.175 107.75 45.825C106.85 47.475 106.4 49.475 106.4 51.825C106.4 54.125 106.85 56.125 107.75 57.825C108.7 59.475 109.95 60.75 111.5 61.65C113.05 62.55 114.8 63 116.75 63ZM127.325 72V63.75L127.55 51.75L126.8 39.825V16.35H138.5V72H127.325ZM162.904 72.6C159.454 72.6 156.129 72.2 152.929 71.4C149.779 70.55 147.279 69.5 145.429 68.25L149.329 59.85C151.179 61 153.354 61.95 155.854 62.7C158.404 63.4 160.904 63.75 163.354 63.75C166.054 63.75 167.954 63.425 169.054 62.775C170.204 62.125 170.779 61.225 170.779 60.075C170.779 59.125 170.329 58.425 169.429 57.975C168.579 57.475 167.429 57.1 165.979 56.85C164.529 56.6 162.929 56.35 161.179 56.1C159.479 55.85 157.754 55.525 156.004 55.125C154.254 54.675 152.654 54.025 151.204 53.175C149.754 52.325 148.579 51.175 147.679 49.725C146.829 48.275 146.404 46.4 146.404 44.1C146.404 41.55 147.129 39.3 148.579 37.35C150.079 35.4 152.229 33.875 155.029 32.775C157.829 31.625 161.179 31.05 165.079 31.05C167.829 31.05 170.629 31.35 173.479 31.95C176.329 32.55 178.704 33.425 180.604 34.575L176.704 42.9C174.754 41.75 172.779 40.975 170.779 40.575C168.829 40.125 166.929 39.9 165.079 39.9C162.479 39.9 160.579 40.25 159.379 40.95C158.179 41.65 157.579 42.55 157.579 43.65C157.579 44.65 158.004 45.4 158.854 45.9C159.754 46.4 160.929 46.8 162.379 47.1C163.829 47.4 165.404 47.675 167.104 47.925C168.854 48.125 170.604 48.45 172.354 48.9C174.104 49.35 175.679 50 177.079 50.85C178.529 51.65 179.704 52.775 180.604 54.225C181.504 55.625 181.954 57.475 181.954 59.775C181.954 62.275 181.204 64.5 179.704 66.45C178.204 68.35 176.029 69.85 173.179 70.95C170.379 72.05 166.954 72.6 162.904 72.6ZM193.54 87.15C191.44 87.15 189.365 86.825 187.315 86.175C185.265 85.525 183.59 84.625 182.29 83.475L186.565 75.15C187.465 75.95 188.49 76.575 189.64 77.025C190.84 77.475 192.015 77.7 193.165 77.7C194.815 77.7 196.115 77.3 197.065 76.5C198.065 75.75 198.965 74.475 199.765 72.675L201.865 67.725L202.765 66.45L217.24 31.65H228.49L210.265 74.475C208.965 77.725 207.465 80.275 205.765 82.125C204.115 83.975 202.265 85.275 200.215 86.025C198.215 86.775 195.99 87.15 193.54 87.15ZM200.44 73.575L182.44 31.65H194.515L208.465 65.4L200.44 73.575ZM257.789 31.05C260.989 31.05 263.839 31.7 266.339 33C268.889 34.25 270.889 36.2 272.339 38.85C273.789 41.45 274.514 44.8 274.514 48.9V72H262.814V50.7C262.814 47.45 262.089 45.05 260.639 43.5C259.239 41.95 257.239 41.175 254.639 41.175C252.789 41.175 251.114 41.575 249.614 42.375C248.164 43.125 247.014 44.3 246.164 45.9C245.364 47.5 244.964 49.55 244.964 52.05V72H233.264V31.65H244.439V42.825L242.339 39.45C243.789 36.75 245.864 34.675 248.564 33.225C251.264 31.775 254.339 31.05 257.789 31.05ZM304.913 72.6C300.563 72.6 296.688 71.725 293.288 69.975C289.888 68.175 287.213 65.7 285.263 62.55C283.363 59.4 282.413 55.825 282.413 51.825C282.413 47.775 283.363 44.2 285.263 41.1C287.213 37.95 289.888 35.5 293.288 33.75C296.688 31.95 300.563 31.05 304.913 31.05C309.163 31.05 312.863 31.95 316.013 33.75C319.163 35.5 321.488 38.025 322.988 41.325L313.913 46.2C312.863 44.3 311.538 42.9 309.938 42C308.388 41.1 306.688 40.65 304.838 40.65C302.838 40.65 301.038 41.1 299.438 42C297.838 42.9 296.563 44.175 295.613 45.825C294.713 47.475 294.263 49.475 294.263 51.825C294.263 54.175 294.713 56.175 295.613 57.825C296.563 59.475 297.838 60.75 299.438 61.65C301.038 62.55 302.838 63 304.838 63C306.688 63 308.388 62.575 309.938 61.725C311.538 60.825 312.863 59.4 313.913 57.45L322.988 62.4C321.488 65.65 319.163 68.175 316.013 69.975C312.863 71.725 309.163 72.6 304.913 72.6Z" fill="black"/>
<path d="M335.614 72.6C333.614 72.6 331.889 71.925 330.439 70.575C329.039 69.175 328.339 67.4 328.339 65.25C328.339 63.1 329.039 61.375 330.439 60.075C331.889 58.725 333.614 58.05 335.614 58.05C337.664 58.05 339.389 58.725 340.789 60.075C342.189 61.375 342.889 63.1 342.889 65.25C342.889 67.4 342.189 69.175 340.789 70.575C339.389 71.925 337.664 72.6 335.614 72.6Z" fill="#39CC2C"/>
<path d="M29.25 72.6C25.85 72.6 22.875 71.85 20.325 70.35C17.775 68.85 15.775 66.575 14.325 63.525C12.925 60.425 12.225 56.525 12.225 51.825C12.225 47.075 12.9 43.175 14.25 40.125C15.6 37.075 17.55 34.8 20.1 33.3C22.65 31.8 25.7 31.05 29.25 31.05C33.05 31.05 36.45 31.925 39.45 33.675C42.5 35.375 44.9 37.775 46.65 40.875C48.45 43.975 49.35 47.625 49.35 51.825C49.35 56.075 48.45 59.75 46.65 62.85C44.9 65.95 42.5 68.35 39.45 70.05C36.45 71.75 33.05 72.6 29.25 72.6ZM5.4 86.55V31.65H16.575V39.9L16.35 51.9L17.1 63.825V86.55H5.4ZM27.225 63C29.175 63 30.9 62.55 32.4 61.65C33.95 60.75 35.175 59.475 36.075 57.825C37.025 56.125 37.5 54.125 37.5 51.825C37.5 49.475 37.025 47.475 36.075 45.825C35.175 44.175 33.95 42.9 32.4 42C30.9 41.1 29.175 40.65 27.225 40.65C25.275 40.65 23.525 41.1 21.975 42C20.425 42.9 19.2 44.175 18.3 45.825C17.4 47.475 16.95 49.475 16.95 51.825C16.95 54.125 17.4 56.125 18.3 57.825C19.2 59.475 20.425 60.75 21.975 61.65C23.525 62.55 25.275 63 27.225 63Z" fill="black"/>
<path d="M76.75 53.201C77.75 53.7783 77.75 55.2217 76.75 55.799L71.5 58.8301C70.5 59.4075 69.25 58.6858 69.25 57.5311V51.4689C69.25 50.3142 70.5 49.5925 71.5 50.1699L76.75 53.201Z" fill="#39CC2C" fill-opacity="0.933333"/>
<path d="M61 48.72C61 48.72 61 45.2 61 41.68C61 38.16 62.5 32 73 32C83.5 32 85 38.16 85 41.68C85 45.2 85 54 85 54" stroke="#39CC2C" stroke-width="3.2" stroke-linecap="round" stroke-linejoin="round"/>
<path d="M57 41L61 49" stroke="#39CC2C" stroke-width="3.2" stroke-linecap="round" stroke-linejoin="round"/>
<path d="M77.9997 45.5C77.5855 45.5 77.2497 45.8358 77.2497 46.25C77.2497 46.6642 77.5855 47 77.9997 47V45.5ZM84.0664 46.25V45.5H77.9997V46.25V47H84.0664V46.25Z" fill="#39CC2C"/>
<path d="M79.7331 42.25C79.3189 42.25 78.9831 42.5858 78.9831 43C78.9831 43.4142 79.3189 43.75 79.7331 43.75V42.25ZM84.0664 43V42.25H79.7331V43V43.75H84.0664V43Z" fill="#39CC2C"/>
<path d="M85 59.28C85 59.28 85 62.8 85 66.32C85 69.84 83.5 76 73 76C62.5 76 61 69.84 61 66.32C61 62.8 61 54 61 54" stroke="#39CC2C" stroke-width="3.2" stroke-linecap="round" stroke-linejoin="round"/>
<path d="M89 67L85 59" stroke="#39CC2C" stroke-width="3.2" stroke-linecap="round" stroke-linejoin="round"/>
<path d="M68.0003 62.5C68.4145 62.5 68.7503 62.1642 68.7503 61.75C68.7503 61.3358 68.4145 61 68.0003 61V62.5ZM61.9336 61.75V62.5H68.0003V61.75V61H61.9336V61.75Z" fill="#39CC2C"/>
<path d="M66.2669 65.75C66.6811 65.75 67.0169 65.4142 67.0169 65C67.0169 64.5858 66.6811 64.25 66.2669 64.25V65.75ZM61.9336 65V65.75H66.2669V65V64.25H61.9336V65Z" fill="#39CC2C"/>
<path d="M71.4668 78C72.8107 78.1013 73.6158 78.1049 74.9335 78V85.8H71.4668V78Z" fill="#39CC2C"/>
<path d="M68 85.8H78.4" stroke="#39CC2C" stroke-width="3" stroke-linecap="round" stroke-linejoin="round"/>
</g>
<defs>
<clipPath id="clip0_41_18">
<rect width="346" height="91" fill="white"/>
</clipPath>
</defs>
</svg>
